<?xml version="1.0" ?><!DOCTYPE svg  PUBLIC '-//W3C//DTD SVG 1.1//EN'  'http://www.w3.org/Graphics/SVG/1.1/DTD/svg11.dtd'><svg enable-background="new 0 0 164 164" height="164px" id="Layer_1" version="1.1" viewBox="0 0 164 164" width="164px" xml:space="preserve" xmlns="http://www.w3.org/2000/svg" xmlns:xlink="http://www.w3.org/1999/xlink"><path clip-rule="evenodd" d="M26.644,64.78h110.394c6.875,0,12.5,5.625,12.5,12.5v74.22  c0,6.875-5.625,12.5-12.5,12.5H26.644c-6.875,0-12.5-5.625-12.5-12.5V77.28C14.144,70.405,19.769,64.78,26.644,64.78L26.644,64.78z   M88.147,116.323c7.847-4.176,11.097-9.207,11.447-13.136c1.881-20.996-36.054-21.461-35.534,0.013  c0.093,3.852,2.966,8.658,10.142,13.104c-2.026,9.464-3.1,15.26-3.1,25.063c6.798,0,13.597,0,20.395,0  C91.497,131.564,90.174,125.786,88.147,116.323L88.147,116.323z M105.354,55.803c0.24-44.592-47.027-44.378-47.027,0.782  c-7.837,0-15.675,0-23.513,0c0-74.752,94.054-75.025,94.054-0.782C121.029,55.803,128.867,55.803,105.354,55.803z" fill="#5f8dd3" fill-rule="evenodd"/></svg>
