<?xml version="1.0" ?><!DOCTYPE svg  PUBLIC '-//W3C//DTD SVG 1.1//EN'  'http://www.w3.org/Graphics/SVG/1.1/DTD/svg11.dtd'><svg enable-background="new 0 0 100 100" height="100px" id="Layer_1" version="1.1" viewBox="0 0 100 100" width="100px" xml:space="preserve" xmlns="http://www.w3.org/2000/svg" xmlns:xlink="http://www.w3.org/1999/xlink"><g id="Captions"/><path d="M70,0C53.432,0,40,13.432,40,30v10L30,50L20,60L10,70L0,80v10v10h10h10V90h10V80h10V70h10V60h10h10  c16.568,0,30-13.432,30-30S86.568,0,70,0z M70,40c-5.522,0-10-4.478-10-10s4.478-10,10-10s10,4.478,10,10S75.522,40,70,40z"/></svg>