<?xml version="1.0" ?><!DOCTYPE svg  PUBLIC '-//W3C//DTD SVG 1.1//EN'  'http://www.w3.org/Graphics/SVG/1.1/DTD/svg11.dtd'><svg enable-background="new 0 0 100 100" height="100px" id="Layer_1" version="1.1" viewBox="0 0 100 100" width="100px" xml:space="preserve" xmlns="http://www.w3.org/2000/svg" xmlns:xlink="http://www.w3.org/1999/xlink"><g id="Captions"/><path d="M64.238,54.239C67.879,48.719,70,42.107,70,35C70,15.67,54.33,0,35,0S0,15.67,0,35s15.67,35,35,35  c7.107,0,13.718-2.121,19.238-5.761L90,100l10-10L64.238,54.239z M10,35c0-13.785,11.215-25,25-25c13.785,0,25,11.215,25,25  S48.785,60,35,60C21.215,60,10,48.785,10,35z"/></svg>